<svg xmlns="http://www.w3.org/2000/svg" xmlns:svg="http://www.w3.org/2000/svg" id="svg2" width="25" height="25" version="1.1" viewBox="0 0 25 25"><metadata id="metadata7"/><g id="layer1" transform="translate(0,-1027.3622)"><path id="rect5194" fill="#fff" fill-opacity="1" stroke="none" stroke-dasharray="none" stroke-dashoffset="0" stroke-linecap="round" stroke-linejoin="round" stroke-miterlimit="4" stroke-opacity="1" stroke-width="2" d="m 3,1031.3622 0,8 2,0 0,-4 0,-4 -2,0 z m 2,4 4,4 0,-3 13,0 0,-2 -13,0 0,-3 -4,4 z" opacity="1"/><path id="path5211" fill="#fff" fill-opacity="1" stroke="none" stroke-dasharray="none" stroke-dashoffset="0" stroke-linecap="round" stroke-linejoin="round" stroke-miterlimit="4" stroke-opacity="1" stroke-width="2" d="m 22,1048.3622 0,-8 -2,0 0,4 0,4 2,0 z m -2,-4 -4,-4 0,3 -13,0 0,2 13,0 0,3 4,-4 z" opacity="1"/></g></svg>